<svg width="160" height="36" viewBox="0 0 160 36" fill="none" xmlns="http://www.w3.org/2000/svg">
<g id="Group 2152">
<g id="text" >
<g id="Alarmz">
<path d="M3.62171 31.1282C2.3864 31.1282 1.47395 30.9723 0.884371 30.6605C0.308828 30.3486 0.0140376 29.81 0 29.0445C0 28.3216 0.315847 27.8538 0.947541 27.6412C1.36867 27.542 1.71259 27.2939 1.97931 26.897C2.24602 26.4859 2.57591 25.8055 2.96896 24.8558C5.57996 18.548 7.7207 13.0055 9.39118 8.22857C9.67193 7.4773 9.78424 6.66932 9.72808 5.80465C9.68597 4.9258 9.70703 4.29502 9.79125 3.91229C9.98778 3.16102 10.5002 2.61528 11.3284 2.27508C12.1566 1.92071 13.5814 1.69391 15.6028 1.59468C16.2766 1.55216 16.8522 1.5309 17.3295 1.5309C17.8208 1.5309 18.284 1.55925 18.7192 1.61595C19.1544 1.65847 19.5123 1.72226 19.7931 1.80731C20.0738 1.87818 20.3476 2.00576 20.6143 2.19003C20.881 2.37431 21.0986 2.56567 21.267 2.76412C21.4355 2.94839 21.6039 3.21772 21.7724 3.57209C21.9549 3.91229 22.1093 4.25958 22.2356 4.61395C22.362 4.96833 22.5094 5.41484 22.6778 5.95349C23.2393 7.61196 23.9482 9.75947 24.8045 12.396C25.6748 15.0326 26.461 17.3856 27.1628 19.4551C27.8647 21.5105 28.5385 23.3958 29.1843 25.111C29.5492 26.089 29.8791 26.7553 30.1739 27.1096C30.4687 27.464 30.8758 27.6695 31.3952 27.7262C31.8865 27.8113 32.1322 28.2365 32.1322 29.002C32.1181 29.7391 31.8163 30.2777 31.2267 30.6179C30.6372 30.9581 29.7036 31.1282 28.4262 31.1282H20.53C18.8455 31.1282 17.6313 30.9723 16.8873 30.6605C16.1573 30.3486 15.7923 29.81 15.7923 29.0445C15.7923 28.6193 15.8555 28.3074 15.9819 28.109C16.1222 27.9105 16.3609 27.8113 16.6978 27.8113C17.5681 27.7688 18.0875 27.5207 18.256 27.0671C18.4384 26.5993 18.3612 25.8906 18.0243 24.9409L17.161 22.2405L11.3284 22.6913V24.6432C11.0055 25.5079 12.7686 27.1096 8.89425 27.0458C9.16096 27.542 8.31028 27.627 9.22273 27.7262C9.89654 27.8113 10.2124 28.2365 10.1703 29.002C10.1703 29.7816 9.87548 30.3344 9.2859 30.6605C8.71036 30.9723 7.7558 31.1282 6.42222 31.1282H3.62171Z" fill="white"/>
<path d="M37.7963 31.1282C36.168 31.1282 34.9678 30.944 34.1957 30.5754C33.4236 30.2069 33.0376 29.6186 33.0376 28.8106C33.0376 28.1869 33.3534 27.7688 33.9851 27.5561C34.5045 27.386 34.8765 27.1522 35.1011 26.8545C35.3398 26.5426 35.4591 26.0252 35.4591 25.3023L35.417 8.35615C35.417 7.49147 35.3117 6.88904 35.1011 6.54884C34.9046 6.20864 34.4343 6.03854 33.6903 6.03854C33.2832 6.03854 32.9885 5.96058 32.806 5.80465C32.6235 5.63455 32.5322 5.35105 32.5322 4.95415C32.5322 4.10365 32.9463 3.44452 33.7746 2.97674C34.6168 2.4948 36.4277 1.84983 39.2071 1.04186C40.6249 0.602436 41.5865 0.318937 42.0919 0.191362C42.5972 0.0637874 43.0605 0 43.4816 0C44.1554 0 44.5835 0.14175 44.766 0.425249C44.9485 0.694574 45.0257 1.27575 44.9977 2.16877C44.8994 4.67774 44.8362 7.1371 44.8081 9.54684C44.7941 11.9566 44.8011 14.8837 44.8292 18.3282C44.8573 21.7586 44.8713 24.1967 44.8713 25.6425C44.8713 26.2804 44.9626 26.734 45.1451 27.0033C45.3275 27.2585 45.6504 27.4427 46.1136 27.5561C46.6892 27.7121 46.977 28.1302 46.977 28.8106C46.977 30.3557 45.482 31.1282 42.4919 31.1282H37.7963Z" fill="white"/>
<path d="M66.5174 31.9149C65.268 31.9149 64.2011 31.6527 63.3168 31.1282C62.4324 30.5896 61.8498 29.8029 61.5691 28.7681C60.025 30.9227 57.8351 32 54.9995 32C53.1605 32 51.6445 31.4613 50.4513 30.3841C49.2721 29.3068 48.6755 27.868 48.6615 26.0678C48.6615 23.7289 49.7354 21.872 51.8831 20.497C54.0449 19.1079 57.0981 18.2219 61.0427 17.8392V17.3289C61.0427 16.0957 60.776 15.1601 60.2425 14.5223C59.7231 13.8702 59.0283 13.5442 58.1579 13.5442C57.442 13.5442 56.9016 13.7143 56.5366 14.0545C56.1857 14.3805 55.8768 15.0042 55.6101 15.9256C55.0205 17.5841 53.7431 18.4133 51.7778 18.4133C49.6441 18.4133 48.5773 17.5841 48.5773 15.9256C48.5773 14.7491 49.1458 13.6292 50.2828 12.5661C51.4199 11.4888 52.9359 10.6312 54.831 9.99336C56.7401 9.34131 58.7405 9.01528 60.8321 9.01528C63.6256 9.01528 65.8997 9.69568 67.6544 11.0565C69.4232 12.4173 70.3075 14.2742 70.3075 16.6272V26.0252C70.3075 26.4788 70.3707 26.7978 70.497 26.9821C70.6374 27.1663 70.876 27.2726 71.213 27.301C71.606 27.301 71.9008 27.379 72.0973 27.5349C72.2938 27.6908 72.3921 27.9885 72.3921 28.4279C72.3921 29.4343 71.8587 30.2707 70.7918 30.9369C69.725 31.5889 68.3001 31.9149 66.5174 31.9149ZM57.0209 24.6432C57.0209 25.4512 57.2034 26.0678 57.5684 26.493C57.9333 26.9183 58.4317 27.1309 59.0634 27.1309C59.7231 27.1309 60.3829 26.7765 61.0427 26.0678V20.8159C58.3615 21.3262 57.0209 22.602 57.0209 24.6432Z" fill="white"/>
<path d="M78.4143 31.1282C75.2558 31.1282 73.6766 30.3557 73.6766 28.8106C73.6766 28.4421 73.7327 28.1657 73.845 27.9814C73.9713 27.7971 74.203 27.6554 74.5399 27.5561C75.0733 27.3577 75.4313 27.1096 75.6138 26.812C75.7962 26.5143 75.8875 26.0111 75.8875 25.3023V17.1163C75.8875 16.2516 75.7822 15.6421 75.5716 15.2877C75.3611 14.9333 74.975 14.7561 74.4135 14.7561C73.9924 14.7561 73.6906 14.6711 73.5081 14.501C73.3397 14.3167 73.2554 14.0261 73.2554 13.6292C73.2554 12.8071 73.6766 12.1338 74.5188 11.6093C75.3751 11.0848 77.1228 10.4186 79.7619 9.61063C80.3515 9.42636 80.8358 9.29169 81.2148 9.20664C81.5938 9.12159 81.9377 9.10742 82.2465 9.16412C82.5554 9.20664 82.794 9.27752 82.9625 9.37674C83.1309 9.46179 83.2923 9.66024 83.4468 9.97209C83.6152 10.2839 83.7415 10.5958 83.8258 10.9076C83.924 11.2053 84.0504 11.6589 84.2048 12.2684L84.3311 12.8C86.0858 10.2769 88.009 9.01528 90.1006 9.01528C91.6447 9.01528 92.845 9.46179 93.7013 10.3548C94.5575 11.2478 94.9857 12.4952 94.9857 14.097C94.9857 15.5287 94.6067 16.5705 93.8486 17.2226C93.1047 17.8746 92.1431 18.2007 90.9639 18.2007C89.7988 18.2007 88.8091 17.662 87.9949 16.5847C87.4615 15.7484 86.8579 15.3302 86.1841 15.3302C85.8332 15.3302 85.5033 15.4436 85.1944 15.6704L85.2787 25.3874C85.2927 26.1812 85.4612 26.7269 85.784 27.0246C86.1069 27.3223 86.6754 27.5136 87.4896 27.5987C88.0932 27.6412 88.395 28.0168 88.395 28.7256C88.395 29.5619 88.0371 30.1714 87.3211 30.5542C86.6193 30.9369 85.5384 31.1282 84.0784 31.1282H78.4143Z" fill="white"/>
<path d="M129.329 31.1282C126.634 31.1282 125.286 30.3415 125.286 28.7681C125.286 28.4704 125.335 28.2365 125.433 28.0664C125.546 27.8822 125.749 27.7262 126.044 27.5987C126.409 27.4711 126.655 27.2585 126.781 26.9608C126.921 26.6489 126.992 26.1386 126.992 25.4299C126.992 24.8487 126.984 23.8281 126.97 22.3681C126.956 20.9081 126.949 19.8095 126.949 19.0724C126.949 17.7116 126.718 16.7052 126.255 16.0532C125.805 15.3869 125.089 15.0538 124.107 15.0538C123.391 15.0538 122.759 15.2452 122.212 15.6279V16.3296C122.127 19.7741 122.085 22.7792 122.085 25.3448C122.085 26.1103 122.149 26.6419 122.275 26.9395C122.415 27.2372 122.682 27.4427 123.075 27.5561C123.37 27.6695 123.566 27.8042 123.665 27.9601C123.763 28.1161 123.812 28.3854 123.812 28.7681C123.812 29.5903 123.482 30.1927 122.822 30.5754C122.177 30.944 121.11 31.1282 119.622 31.1282H115.053C112.385 31.1282 111.052 30.3415 111.052 28.7681C111.052 28.1728 111.297 27.7829 111.789 27.5987C112.154 27.4711 112.406 27.2443 112.547 26.9183C112.701 26.5781 112.778 26.0819 112.778 25.4299C112.778 24.8487 112.771 23.8281 112.757 22.3681C112.743 20.9081 112.736 19.8095 112.736 19.0724C112.736 17.7116 112.498 16.7052 112.02 16.0532C111.557 15.3869 110.827 15.0538 109.83 15.0538C109.044 15.0538 108.328 15.3161 107.683 15.8405L107.725 25.4299C107.725 26.1953 107.788 26.7127 107.914 26.9821C108.041 27.2372 108.293 27.4286 108.672 27.5561C109.192 27.7829 109.451 28.1728 109.451 28.7256C109.451 30.3274 108.146 31.1282 105.535 31.1282H100.734C99.1759 31.1282 98.0248 30.944 97.2808 30.5754C96.5369 30.1927 96.1649 29.5619 96.1649 28.6831C96.1649 28.3287 96.221 28.0594 96.3333 27.8751C96.4596 27.6766 96.6913 27.5136 97.0282 27.386C97.8985 27.0884 98.3337 26.408 98.3337 25.3448L98.2916 16.8399C98.2916 16.0035 98.1863 15.4365 97.9757 15.1389C97.7651 14.827 97.3931 14.6569 96.8597 14.6286C96.5088 14.6002 96.2561 14.5081 96.1017 14.3522C95.9473 14.1962 95.8701 13.9269 95.8701 13.5442C95.8701 12.722 96.2982 12.0416 97.1545 11.503C98.0108 10.9502 99.6111 10.3194 101.955 9.61063C102.531 9.44053 103.008 9.32004 103.387 9.24917C103.78 9.16412 104.131 9.14994 104.44 9.20664C104.763 9.24917 105.023 9.32713 105.219 9.44053C105.416 9.53976 105.605 9.73821 105.788 10.0359C105.984 10.3336 106.146 10.6383 106.272 10.9502C106.398 11.262 106.553 11.7014 106.735 12.2684L106.862 12.7149C108.041 11.5243 109.367 10.61 110.841 9.97209C112.315 9.33422 113.838 9.01528 115.41 9.01528C116.744 9.01528 117.944 9.32004 119.011 9.92957C120.092 10.5249 120.913 11.3967 121.475 12.5448C124.072 10.1918 126.788 9.01528 129.624 9.01528C130.564 9.01528 131.441 9.17121 132.256 9.48306C133.084 9.79491 133.814 10.2485 134.446 10.8439C135.091 11.4392 135.59 12.2259 135.941 13.204C136.291 14.1821 136.446 15.2948 136.404 16.5422C136.404 17.7329 136.397 19.3205 136.383 21.305C136.369 23.2753 136.362 24.6503 136.362 25.4299C136.362 26.167 136.425 26.6773 136.551 26.9608C136.692 27.2443 136.958 27.4286 137.351 27.5136C137.688 27.5987 137.927 27.7333 138.067 27.9176C138.222 28.0877 138.299 28.3429 138.299 28.6831C138.299 30.3132 136.902 31.1282 134.109 31.1282H129.329Z" fill="white"/>
<path d="M156.618 31.4684C156.267 31.4684 155.72 31.4117 154.976 31.2983C154.246 31.1849 153.614 31.1282 153.08 31.1282H142.658C142.503 31.1282 142.271 31.1282 141.963 31.1282C141.654 31.1282 141.436 31.1282 141.31 31.1282C141.198 31.1282 141.022 31.1282 140.783 31.1282C140.559 31.1141 140.404 31.0999 140.32 31.0857C140.236 31.0574 140.11 31.029 139.941 31.0007C139.787 30.9581 139.682 30.9085 139.625 30.8518C139.569 30.7951 139.492 30.7243 139.394 30.6392C139.31 30.5542 139.246 30.4549 139.204 30.3415C139.176 30.2281 139.148 30.1006 139.12 29.9588C139.092 29.8029 139.078 29.6257 139.078 29.4272C139.036 28.4633 139.141 27.7192 139.394 27.1947C139.646 26.656 140.229 25.8268 141.141 24.707C141.282 24.5227 141.394 24.381 141.478 24.2817C142.026 23.6013 142.854 22.5878 143.963 21.2412C145.072 19.8804 146.069 18.6543 146.953 17.5628C147.837 16.4571 148.546 15.5499 149.08 14.8412C149.276 14.586 149.501 14.2742 149.754 13.9056C150.02 13.5371 150.21 13.2819 150.322 13.1402C150.182 13.1685 149.978 13.1827 149.711 13.1827L147.395 13.2678C146.399 13.2819 145.732 13.4308 145.395 13.7143C145.072 13.9836 144.672 14.664 144.195 15.7555C143.507 17.2297 142.973 18.1936 142.594 18.6472C142.215 19.0866 141.675 19.285 140.973 19.2425C140.103 19.2425 139.534 18.796 139.267 17.903C139.015 17.01 139.036 15.5854 139.331 13.6292C139.569 12.0416 139.948 10.9643 140.468 10.3973C141.001 9.81617 141.815 9.52558 142.91 9.52558C143.303 9.52558 143.851 9.59646 144.553 9.73821C145.269 9.86578 145.9 9.92957 146.448 9.92957C147.908 9.92957 149.69 9.91539 151.796 9.88704C153.902 9.85869 155.439 9.84452 156.407 9.84452C157.699 9.84452 158.562 9.97918 158.997 10.2485C159.433 10.5178 159.692 11.1344 159.776 12.0983C159.819 12.7362 159.755 13.2323 159.587 13.5867C159.433 13.9411 159.117 14.3734 158.639 14.8837C156.309 18.2007 153.986 21.4538 151.67 24.6432C150.701 25.9615 149.866 26.975 149.164 27.6837L149.754 27.6412L151.67 27.5987C152.372 27.5845 152.898 27.4994 153.249 27.3435C153.6 27.1876 153.867 26.9608 154.049 26.6631C154.246 26.3654 154.526 25.8055 154.891 24.9834C155.453 23.6368 155.944 22.7296 156.365 22.2618C156.8 21.7798 157.362 21.5389 158.05 21.5389C158.934 21.5389 159.51 21.9783 159.776 22.8571C160.043 23.736 160.071 25.2031 159.861 27.2585C159.734 28.7752 159.433 29.8596 158.955 30.5116C158.492 31.1495 157.713 31.4684 156.618 31.4684Z" fill="white"/>
</g>
</g>
<g id="bell">
<path id="ting" d="M18.292 35.1558C17.8621 35.1453 17.4355 35.1137 17.0392 34.9136C16.3698 34.5766 15.9129 34.0466 15.7089 33.2988C15.6111 32.9408 15.7612 32.7109 16.1254 32.6248C16.8774 32.4476 17.6311 32.2756 18.3847 32.1018C18.8417 31.9965 19.2969 31.8894 19.7539 31.7859C20.2546 31.6735 20.5109 31.9 20.5143 32.4406C20.521 33.6394 20.0034 34.4818 18.9496 34.968C18.931 34.9768 18.9176 34.9979 18.9007 35.0137C18.6984 35.0611 18.4943 35.1067 18.292 35.1541V35.1558Z" fill="black"/>
<path id="Vector" d="M16.6945 31.5619C14.0102 31.8884 11.3243 32.2026 8.64165 32.5484C7.64348 32.6765 6.95386 31.9621 6.851 30.9617C6.80211 30.486 6.87292 29.991 7.05334 29.5505C7.2759 29.0081 7.689 28.5921 8.01105 28.1147C8.31286 27.6654 8.46292 27.1441 8.47979 26.5982C8.50676 25.7119 8.4899 24.8237 8.50845 23.9374C8.56241 21.4853 9.0244 19.1562 10.4458 17.1272C11.0629 16.2443 11.8486 15.5598 12.8063 15.1035C12.9395 15.0403 12.9918 14.9595 13.0002 14.8103C13.0441 14.0574 13.5583 13.3904 14.28 13.1394C14.9696 12.8989 15.7857 13.1166 16.2426 13.6993C16.4062 13.9099 16.5006 14.1785 16.6389 14.4119C16.6827 14.4874 16.7586 14.5751 16.8328 14.5927C18.6234 14.9806 19.9504 16.0723 21.011 17.5677C21.9754 18.928 22.5858 20.4603 22.9989 22.0821C23.2164 22.9387 23.3985 23.8075 23.6109 24.6658C23.761 25.2748 24.0493 25.8417 24.4995 26.2683C25.2734 27.0037 26.1249 27.46 26.2193 28.6781C26.2919 29.6014 25.7894 30.4702 24.862 30.5808C22.144 30.9055 19.4193 31.2337 16.6979 31.5637L16.6945 31.5619Z" fill="#F0E303"/>
<g id="right">
<path id="Vector_2" d="M25.6721 20.1112C25.6738 20.1744 25.6771 20.2393 25.6788 20.3025C25.6788 20.5149 25.5187 20.6922 25.3197 20.6957C25.1241 20.6992 24.9538 20.5412 24.9437 20.3341C24.9184 19.869 24.8594 19.4091 24.7363 18.958C24.4615 17.9453 23.959 17.0747 23.2289 16.3463C23.121 16.2392 23.035 16.1234 23.0586 15.9567C23.0805 15.8057 23.1581 15.6969 23.298 15.6425C23.4447 15.5845 23.583 15.6126 23.6825 15.7285C23.9809 16.0742 24.2979 16.4077 24.5576 16.7833C25.2404 17.775 25.5945 18.8949 25.6738 20.1094L25.6721 20.1112Z" fill="#F0E303"/>
<path id="Vector_3" d="M24.0989 20.2604C24.1225 20.4412 24.0787 20.6149 23.8898 20.715C23.6588 20.8379 23.3992 20.6816 23.3621 20.4061C23.325 20.12 23.3031 19.8286 23.2424 19.546C23.0737 18.7685 22.6961 18.1103 22.1531 17.5504C22.0806 17.4767 22.0149 17.3766 21.9879 17.2766C21.9441 17.1098 22.0317 16.9483 22.1767 16.8711C22.315 16.7956 22.487 16.8202 22.6084 16.9396C23.0721 17.3907 23.4346 17.919 23.6959 18.5228C23.932 19.0686 24.0584 19.6443 24.0989 20.2622V20.2604Z" fill="#F0E303"/>
</g>
<g id="left">
<path id="Vector_4" d="M5.94823 19.6235C5.97858 19.4515 6.00556 19.2812 6.0376 19.1092C6.28883 17.7788 6.89414 16.6537 7.84174 15.7269C7.99686 15.576 8.20762 15.583 8.34757 15.734C8.48752 15.8867 8.48246 16.1096 8.32228 16.2693C7.97157 16.6186 7.66469 17.0012 7.41178 17.433C7.00037 18.1368 6.75082 18.8968 6.67158 19.7165C6.65977 19.8376 6.64797 19.9605 6.63954 20.0816C6.62605 20.2905 6.51983 20.4256 6.33773 20.4607C6.18092 20.4923 6.03423 20.3975 5.95161 20.2132C5.94655 20.2027 5.93812 20.1957 5.92969 20.1869C5.93643 19.9991 5.94318 19.8113 5.94992 19.6235H5.94823Z" fill="#F0E303"/>
<path id="Vector_5" d="M7.4429 20.004C7.53226 18.7946 7.99426 17.7468 8.85417 16.8938C9.01098 16.7376 9.22849 16.734 9.36843 16.8797C9.51344 17.0307 9.51007 17.2606 9.34483 17.4238C8.94859 17.817 8.64004 18.2733 8.43096 18.7999C8.25897 19.2299 8.1713 19.6775 8.14769 20.1409C8.13926 20.3059 8.07013 20.4305 7.92007 20.4937C7.69413 20.5885 7.44796 20.4164 7.43784 20.1584C7.43615 20.1146 7.44121 20.0689 7.4429 20.004Z" fill="#F0E303"/>
</g>
</g>
</g>
<defs>
<style>
* {
  margin: 0;
  padding: 0;
  -webkit-box-sizing: border-box;
          box-sizing: border-box;
}

@-webkit-keyframes bellAnim {
  0%{
    -webkit-transform: rotate(15deg);
            transform: rotate(15deg);
  }
  12.5%{
    -webkit-transform: rotate(-15deg);
            transform: rotate(-15deg);
  }
  25%{
    -webkit-transform: rotate(15deg);
            transform: rotate(15deg);
  }
  37.5%{
    -webkit-transform: rotate(-15deg);
            transform: rotate(-15deg);
  }
  50% {
    -webkit-transform: rotate(15deg);
            transform: rotate(15deg);
  }
  62.5%{
    -webkit-transform: rotate(0deg);
            transform: rotate(0deg);
  }
  75%{
    -webkit-transform: rotate(0deg);
            transform: rotate(0deg);
  }
  100% {
    -webkit-transform: rotate(15deg);
            transform: rotate(15deg);
  }
}

@keyframes bellAnim {
  0%{
    -webkit-transform: rotate(15deg);
            transform: rotate(15deg);
  }
  12.5%{
    -webkit-transform: rotate(-15deg);
            transform: rotate(-15deg);
  }
  25%{
    -webkit-transform: rotate(15deg);
            transform: rotate(15deg);
  }
  37.5%{
    -webkit-transform: rotate(-15deg);
            transform: rotate(-15deg);
  }
  50% {
    -webkit-transform: rotate(15deg);
            transform: rotate(15deg);
  }
  62.5%{
    -webkit-transform: rotate(0deg);
            transform: rotate(0deg);
  }
  75%{
    -webkit-transform: rotate(0deg);
            transform: rotate(0deg);
  }
  100% {
    -webkit-transform: rotate(15deg);
            transform: rotate(15deg);
  }
}

@-webkit-keyframes tingAnim {
  0%{
    -webkit-transform: rotate(15deg);
            transform: rotate(15deg);
  }
  12.5%{
    -webkit-transform: rotate(-15deg);
            transform: rotate(-15deg);
  }
  25%{
    -webkit-transform: rotate(15deg);
            transform: rotate(15deg);
  }
  37.5%{
    -webkit-transform: rotate(-15deg);
            transform: rotate(-15deg);
  }
  50% {
    -webkit-transform: rotate(15deg);
            transform: rotate(15deg);
  }
  62.5%{
    -webkit-transform: rotate(0deg);
            transform: rotate(0deg);
  }
  75%{
    -webkit-transform: rotate(0deg);
            transform: rotate(0deg);
  }
  100% {
    -webkit-transform: rotate(15deg);
            transform: rotate(15deg);
  }
}

@keyframes tingAnim {
  0%{
    -webkit-transform: rotate(15deg);
            transform: rotate(15deg);
  }
  12.5%{
    -webkit-transform: rotate(-15deg);
            transform: rotate(-15deg);
  }
  25%{
    -webkit-transform: rotate(15deg);
            transform: rotate(15deg);
  }
  37.5%{
    -webkit-transform: rotate(-15deg);
            transform: rotate(-15deg);
  }
  50% {
    -webkit-transform: rotate(15deg);
            transform: rotate(15deg);
  }
  62.5%{
    -webkit-transform: rotate(0deg);
            transform: rotate(0deg);
  }
  75%{
    -webkit-transform: rotate(0deg);
            transform: rotate(0deg);
  }
  100% {
    -webkit-transform: rotate(15deg);
            transform: rotate(15deg);
  }
}

@-webkit-keyframes soundAnim {
  0%{
    -webkit-transform: scale(0);
            transform: scale(0);
  }
  12.5%{
    -webkit-transform: scale(1);
            transform: scale(1);
    opacity: 1;
  }
  15%{
    -webkit-transform: scale(1.2);
            transform: scale(1.2);
    opacity: 0;
  }
  25%{
    opacity: 0;
    -webkit-transform: scale(0);
            transform: scale(0);
  }
  27.5%{
    opacity: 1;
  }
  37.5%{
    -webkit-transform: scale(1);
            transform: scale(1);
    opacity: 1;
  }
  40%{
    -webkit-transform: scale(1.2);
            transform: scale(1.2);
    opacity: 0;
  }
  50% {
    -webkit-transform: scale(0);
            transform: scale(0);
  }
  62.5%{
    -webkit-transform: scale(1);
            transform: scale(1);
  }
  75%{
    -webkit-transform: scale(1);
            transform: scale(1);
  }
  100% {
    -webkit-transform: scale(0);
            transform: scale(0);
  }
}

@keyframes soundAnim {
  0%{
    -webkit-transform: scale(0);
            transform: scale(0);
  }
  12.5%{
    -webkit-transform: scale(1);
            transform: scale(1);
    opacity: 1;
  }
  15%{
    -webkit-transform: scale(1.2);
            transform: scale(1.2);
    opacity: 0;
  }
  25%{
    opacity: 0;
    -webkit-transform: scale(0);
            transform: scale(0);
  }
  27.5%{
    opacity: 1;
  }
  37.5%{
    -webkit-transform: scale(1);
            transform: scale(1);
    opacity: 1;
  }
  40%{
    -webkit-transform: scale(1.2);
            transform: scale(1.2);
    opacity: 0;
  }
  50% {
    -webkit-transform: scale(0);
            transform: scale(0);
  }
  62.5%{
    -webkit-transform: scale(1);
            transform: scale(1);
  }
  75%{
    -webkit-transform: scale(1);
            transform: scale(1);
  }
  100% {
    -webkit-transform: scale(0);
            transform: scale(0);
  }
}


#bell{
  -webkit-animation: bellAnim 5s ease-out infinite;
          animation: bellAnim 5s ease-out infinite;
  -webkit-transform-origin: 14px 10px;
      -ms-transform-origin: 14px 10px;
          transform-origin: 14px 10px;
}

#ting{
  -webkit-animation: tingAnim 5s ease-out infinite;
          animation: tingAnim 5s ease-out infinite;
  -webkit-transform-origin: 14px 10px;
      -ms-transform-origin: 14px 10px;
          transform-origin: 14px 10px;
  -webkit-animation-delay: 100ms;
          animation-delay: 100ms;
}

#right, #left{
  -webkit-transform-origin: 15px 20px;
      -ms-transform-origin: 15px 20px;
          transform-origin: 15px 20px;
  -webkit-animation: soundAnim 5s ease-out infinite;
          animation: soundAnim 5s ease-out infinite;
}
</style>
</defs>
</svg>
